<svg width="24" height="24" viewBox="0 0 24 24" fill="none" xmlns="http://www.w3.org/2000/svg">
<path fill-rule="evenodd" clip-rule="evenodd" d="M17 9C18.6569 9 20 7.65685 20 6C20 4.34315 18.6569 3 17 3C15.3431 3 14 4.34315 14 6C14 6.13708 14.0092 6.27202 14.027 6.40423L8.05661 9.81588C7.51958 9.31001 6.79599 9 6 9C4.34315 9 3 10.3431 3 12C3 13.6569 4.34315 15 6 15C6.77051 15 7.47318 14.7095 8.00447 14.2321L14.0504 18.5506C14.309 19.9445 15.5312 21 17 21C18.6569 21 20 19.6569 20 18C20 16.3431 18.6569 15 17 15C15.9353 15 15.0001 15.5547 14.4676 16.3908L8.96491 12.4603C8.98801 12.3103 9 12.1565 9 12C9 11.8629 8.9908 11.728 8.97299 11.5957L14.9434 8.1841C15.4804 8.68998 16.204 9 17 9ZM16 18.0085C16.0001 18.0031 16.0001 17.9977 16 17.9924C16.0041 17.4436 16.4503 17 17 17C17.5523 17 18 17.4477 18 18C18 18.5523 17.5523 19 17 19C16.4505 19 16.0046 18.5569 16 18.0085ZM17 7C17.5523 7 18 6.55228 18 6C18 5.44772 17.5523 5 17 5C16.4477 5 16 5.44772 16 6C16 6.55228 16.4477 7 17 7ZM7 12C7 12.5523 6.55228 13 6 13C5.44772 13 5 12.5523 5 12C5 11.4477 5.44772 11 6 11C6.55228 11 7 11.4477 7 12Z" fill="#F9F7FF"/>
</svg>
