<svg width="24" height="24" viewBox="0 0 24 24" fill="none" xmlns="http://www.w3.org/2000/svg">
<path fill-rule="evenodd" clip-rule="evenodd" d="M9.55908 5.24026C9.12538 6.01128 9 7.04912 9 8C9 8.55228 8.55228 9 8 9C7.44772 9 7 8.55228 7 8C7 6.95088 7.12462 5.48872 7.81592 4.25974C8.17102 3.62845 8.68058 3.05012 9.39691 2.63486C10.1125 2.22005 10.979 2 12 2C13.021 2 13.8875 2.22005 14.6031 2.63486C15.3194 3.05012 15.829 3.62845 16.1841 4.25973C16.8754 5.48871 17 6.95087 17 7.99998C17.0001 8.55226 16.5524 8.99999 16.0001 9C15.4478 9.00001 15.0001 8.55231 15 8.00002C15 7.04913 14.8746 6.01129 14.4409 5.24027C14.2335 4.87155 13.9618 4.57488 13.6 4.36514C13.2375 4.15495 12.729 4 12 4C11.271 4 10.7625 4.15495 10.4 4.36514C10.0382 4.57488 9.76648 4.87155 9.55908 5.24026Z" fill="#F9F7FF"/>
<path d="M14.0001 14C14.0001 15.1046 13.1046 16 12.0001 16C10.8955 16 10.0001 15.1046 10.0001 14C10.0001 12.8954 10.8955 12 12.0001 12C13.1046 12 14.0001 12.8954 14.0001 14Z" fill="#F9F7FF"/>
<path fill-rule="evenodd" clip-rule="evenodd" d="M12 13C12.5523 13 13 13.4477 13 14V17C13 17.5523 12.5523 18 12 18C11.4477 18 11 17.5523 11 17V14C11 13.4477 11.4477 13 12 13Z" fill="#F9F7FF"/>
<path fill-rule="evenodd" clip-rule="evenodd" d="M3 11C3 9.34315 4.34315 8 6 8H18C19.6569 8 21 9.34315 21 11V19C21 20.6569 19.6569 22 18 22H6C4.34315 22 3 20.6569 3 19V11ZM6 10C5.44772 10 5 10.4477 5 11V19C5 19.5523 5.44772 20 6 20H18C18.5523 20 19 19.5523 19 19V11C19 10.4477 18.5523 10 18 10H6Z" fill="#F9F7FF"/>
</svg>
