<svg width="26" height="20" viewBox="0 0 26 20" fill="none" xmlns="http://www.w3.org/2000/svg">
<g clip-path="url(#clip0_2_14110)">
<path d="M8.76486 11.1274C8.47475 10.8174 8.21377 10.479 8.01081 10.1125C7.74983 10.1406 7.48885 10.1689 7.19877 10.1689C6.1257 10.1689 5.11043 9.85887 4.26949 9.35132C2.09427 9.88696 0.499023 11.7756 0.499023 14.0307V16.6523H4.84947C4.93637 14.1718 6.50251 12.0576 8.76486 11.1274V11.1274Z" fill="#0D031F"/>
<path d="M7.19963 8.75947H7.46061C7.34456 8.33662 7.28654 7.91378 7.28654 7.46284C7.28654 5.20773 8.7077 3.23436 10.7088 2.38867C9.95479 1.26099 8.64966 0.528076 7.17045 0.528076C4.82114 0.528076 2.93604 2.38867 2.93604 4.64377C2.93604 6.89912 4.85029 8.75947 7.19959 8.75947H7.19963Z" fill="#0D031F"/>
<path d="M21.7288 9.35132C20.8587 9.85864 19.8726 10.1689 18.7995 10.1689C18.5385 10.1689 18.2484 10.1408 17.9875 10.1125C17.7845 10.479 17.5235 10.8174 17.2334 11.1274C19.4667 12.0576 21.0619 14.2001 21.1488 16.6809H25.4992V14.0593C25.4992 11.7757 23.904 9.88703 21.7288 9.35134V9.35132Z" fill="#0D031F"/>
<path d="M18.6841 7.4631C18.6841 7.91402 18.626 8.33688 18.51 8.75973H18.771C21.1203 8.75973 23.0054 6.89914 23.0054 4.64403C23.0056 2.38892 21.1494 0.500244 18.8001 0.500244C17.3209 0.500244 16.0158 1.23316 15.2617 2.36083C17.2631 3.23462 18.684 5.17966 18.684 7.4631H18.6841Z" fill="#0D031F"/>
<path d="M19.699 16.8779C19.699 14.6228 18.1038 12.7058 15.9286 12.1985C15.0585 12.7058 14.0724 13.0161 12.9993 13.0161C11.9262 13.0161 10.911 12.706 10.07 12.1985C7.89481 12.7341 6.29956 14.6228 6.29956 16.8779V19.4994H19.6989L19.699 16.8779Z" fill="#0D031F"/>
<path d="M13.0003 3.31934C10.651 3.31934 8.76587 5.17993 8.76587 7.43503C8.76587 9.71847 10.6801 11.5507 13.0003 11.5507C15.3496 11.5507 17.2347 9.69014 17.2347 7.43503C17.2347 5.17993 15.3496 3.31934 13.0003 3.31934Z" fill="#0D031F"/>
</g>
<defs>
<clipPath id="clip0_2_14110">
<rect width="25" height="19" fill="white" transform="translate(0.499023 0.499756)"/>
</clipPath>
</defs>
</svg>
