<svg width="21" height="26" viewBox="0 0 21 26" fill="none" xmlns="http://www.w3.org/2000/svg">
<g clip-path="url(#clip0_2_14106)">
<path d="M20.9983 12.9999V23.7141C20.9983 24.7005 20.1843 25.4999 19.18 25.4999L15.5438 25.4997V19.0616C16.3459 18.717 16.9073 17.9327 16.9073 17.0178C16.9073 15.7851 15.8898 14.7857 14.6346 14.7857C13.3795 14.7857 12.362 15.7851 12.362 17.0178C12.362 17.9327 12.9234 18.7166 13.7255 19.0616V25.4997H11.9073L11.9075 22.3747C11.9075 22.0934 11.7726 21.8289 11.5435 21.6607L9.56964 20.2065C9.91376 18.7664 8.79346 17.4641 7.36205 17.4641C6.10693 17.4641 5.08935 18.4635 5.08935 19.6962C5.08935 21.3786 6.93213 22.4891 8.47469 21.6312L10.0892 22.8212V25.4997H2.81655C1.81229 25.4997 0.998291 24.7002 0.998291 23.7139L0.998291 12.9997C0.998291 12.0133 1.81229 11.2139 2.81655 11.2139L19.1799 11.2139C20.1842 11.2139 20.9982 12.0133 20.9982 12.9997L20.9983 12.9999Z" fill="#0D031F"/>
<path d="M3.72656 9.4286V7.6428C3.72656 3.70443 6.98912 0.5 10.9992 0.5C15.0092 0.5 18.2718 3.70453 18.2718 7.6428V9.4286H15.5447V7.6428C15.5447 5.1813 13.5055 3.17855 10.9993 3.17855C8.49305 3.17855 6.4539 5.1813 6.4539 7.6428V9.4286H3.72656Z" fill="#0D031F"/>
</g>
<defs>
<clipPath id="clip0_2_14106">
<rect width="20" height="25" fill="white" transform="translate(0.998779 0.5)"/>
</clipPath>
</defs>
</svg>
