<svg width="26" height="26" viewBox="0 0 26 26" fill="none" xmlns="http://www.w3.org/2000/svg">
<g clip-path="url(#clip0_2_14099)">
<path d="M25.365 12.7973C25.365 9.50015 24.0481 6.33825 21.7041 4.00696C19.3597 1.67567 16.1804 0.365967 12.8656 0.365967C9.55071 0.365967 6.37112 1.67567 4.02705 4.00696C1.68297 6.33853 0.366089 9.5005 0.366089 12.7973V13.9628C0.368814 17.6551 1.37152 21.2782 3.2682 24.4521C3.45048 24.8528 3.79462 25.158 4.21559 25.2921C4.63684 25.426 5.09512 25.3764 5.47744 25.1555C5.85972 24.9344 6.13002 24.5629 6.22101 24.1325C6.31229 23.7022 6.21584 23.2537 5.95589 22.8982C4.33956 20.195 3.48807 17.1077 3.49107 13.9629V12.7973C3.49107 9.46631 5.27768 6.38815 8.17846 4.72298C11.079 3.05746 14.6527 3.05746 17.5534 4.72298C20.4542 6.38849 22.2408 9.46666 22.2408 12.7973V13.9629C22.2408 14.3791 22.0176 14.7639 21.6549 14.9721C21.2923 15.1805 20.8457 15.1805 20.483 14.9721C20.1206 14.7639 19.8972 14.3791 19.8972 13.9629V12.7973C19.8972 10.9427 19.1563 9.16419 17.8378 7.85262C16.5191 6.54132 14.7308 5.80451 12.866 5.80451H12.702C10.8805 5.80342 9.13308 6.52266 7.84508 7.80385C6.5568 9.08483 5.83366 10.8227 5.83477 12.6342V13.9629C5.83477 17.5407 7.10778 21.0036 9.42849 23.7369C10.2228 24.68 11.3949 25.2257 12.6317 25.2287H13.0225H13.0222C14.1219 25.2225 15.1744 24.784 15.9502 24.009C16.726 23.2339 17.1619 22.185 17.163 21.0912C17.1666 20.0888 16.7979 19.1206 16.1279 18.3718C15.032 17.1619 14.4265 15.5909 14.4285 13.9625V12.797C14.4285 12.2417 14.1307 11.7288 13.6473 11.4513C13.1639 11.1738 12.5683 11.1738 12.085 11.4513C11.6016 11.7288 11.3038 12.2418 11.3038 12.797V13.9625C11.3041 16.3543 12.1946 18.6612 13.8038 20.4387C13.9596 20.6189 14.043 20.8498 14.0381 21.0874C14.0392 21.3611 13.9305 21.624 13.7362 21.818C13.5419 22.0118 13.2782 22.1207 13.003 22.1207H12.6122C12.2959 22.1172 11.9972 21.9752 11.7959 21.7324C9.95858 19.5563 8.95398 16.8042 8.95998 13.9626V12.6339C8.95889 11.6472 9.35235 10.7004 10.0534 10.0023C10.7548 9.30427 11.706 8.9121 12.6984 8.9121H12.8662C13.9022 8.9121 14.8959 9.32129 15.6283 10.05C16.361 10.7784 16.7724 11.7667 16.7724 12.797V13.9626C16.7724 15.4893 17.5915 16.9001 18.9209 17.6635C20.2503 18.4269 21.8882 18.4269 23.2176 17.6635C24.5473 16.9001 25.3661 15.4893 25.3661 13.9626L25.365 12.7973Z" fill="#0D031F"/>
</g>
<defs>
<clipPath id="clip0_2_14099">
<rect width="25" height="25" fill="white" transform="translate(0.366089 0.365967)"/>
</clipPath>
</defs>
</svg>
