<svg width="61" height="61" viewBox="0 0 61 61" fill="none" xmlns="http://www.w3.org/2000/svg">
<g opacity="0.8" clip-path="url(#clip0_2_17767)">
<path d="M21.8394 41.7537L21.8394 40.2007C21.8394 39.6067 21.4992 39.2177 20.9152 39.2177C20.6232 39.2177 20.3057 39.3202 20.0874 39.6579C19.9173 39.3745 19.6735 39.2177 19.3078 39.2177C19.064 39.2177 18.8202 39.2961 18.6275 39.5795L18.6275 39.2689L18.1172 39.2689L18.1172 41.7537L18.6275 41.7537L18.6275 40.3816C18.6275 39.9414 18.8458 39.7333 19.1859 39.7333C19.5261 39.7333 19.6962 39.9655 19.6962 40.3816L19.6962 41.7537L20.2065 41.7537L20.2065 40.3816C20.2065 39.9414 20.4503 39.7333 20.765 39.7333C21.1052 39.7333 21.2753 39.9655 21.2753 40.3816L21.2753 41.7537L21.8394 41.7537ZM29.4086 39.2689L28.5808 39.2689L28.5808 38.5181L28.0705 38.5181L28.0705 39.2689L27.6084 39.2689L27.6084 39.7605L28.0705 39.7605L28.0705 40.9003C28.0705 41.4702 28.2888 41.8049 28.8728 41.8049C29.0911 41.8049 29.3349 41.7265 29.505 41.624L29.3576 41.1566C29.2102 41.2591 29.0401 41.2863 28.9182 41.2863C28.6744 41.2863 28.578 41.1295 28.578 40.8732L28.578 39.7605L29.4058 39.7605L29.4058 39.2689L29.4086 39.2689ZM33.7403 39.2147C33.4483 39.2147 33.2527 39.3715 33.1308 39.5765L33.1308 39.2659L32.6205 39.2659L32.6205 41.7507L33.1308 41.7507L33.1308 40.3515C33.1308 39.9384 33.3009 39.7032 33.6184 39.7032C33.7148 39.7032 33.8367 39.7303 33.9359 39.7544L34.0833 39.2358C33.9813 39.2147 33.8367 39.2147 33.7403 39.2147ZM27.1945 39.474C26.9507 39.2931 26.6105 39.2147 26.2448 39.2147C25.6609 39.2147 25.2725 39.5252 25.2725 40.0168C25.2725 40.4299 25.5645 40.6651 26.0748 40.7405L26.3186 40.7676C26.585 40.8189 26.7324 40.8973 26.7324 41.0269C26.7324 41.2079 26.5368 41.3375 26.1967 41.3375C25.8565 41.3375 25.5871 41.2079 25.4171 41.0782L25.1733 41.4913C25.4397 41.6994 25.8054 41.8019 26.1711 41.8019C26.8515 41.8019 27.2427 41.4642 27.2427 40.9998C27.2427 40.5595 26.9252 40.3274 26.4405 40.249L26.1967 40.2218C25.9784 40.1947 25.8083 40.1434 25.8083 39.9896C25.8083 39.8087 25.9784 39.7062 26.2477 39.7062C26.5397 39.7062 26.8317 39.8358 26.9791 39.9142L27.1945 39.474ZM40.7709 39.2147C40.4789 39.2147 40.2833 39.3715 40.1614 39.5765L40.1614 39.2659L39.6511 39.2659L39.6511 41.7507L40.1614 41.7507L40.1614 40.3515C40.1614 39.9384 40.3315 39.7032 40.649 39.7032C40.7454 39.7032 40.8673 39.7303 40.9665 39.7544L41.1139 39.2418C41.0147 39.2147 40.8701 39.2147 40.7709 39.2147ZM34.2506 40.5113C34.2506 41.2622 34.7382 41.8049 35.4923 41.8049C35.8325 41.8049 36.0763 41.7265 36.3201 41.5215L36.0763 41.0812C35.8807 41.238 35.6879 41.3134 35.4668 41.3134C35.0529 41.3134 34.7609 41.0028 34.7609 40.5113C34.7609 40.0439 35.0529 39.7333 35.4668 39.7092C35.6851 39.7092 35.8807 39.7876 36.0763 39.9414L36.3201 39.5011C36.0763 39.2931 35.8325 39.2177 35.4923 39.2177C34.7382 39.2147 34.2506 39.7605 34.2506 40.5113ZM38.9707 40.5113L38.9707 39.2689L38.4604 39.2689L38.4604 39.5795C38.2903 39.3473 38.0465 39.2177 37.729 39.2177C37.0713 39.2177 36.561 39.7605 36.561 40.5113C36.561 41.2622 37.0713 41.8049 37.729 41.8049C38.0692 41.8049 38.313 41.6753 38.4604 41.4431L38.4604 41.7537L38.9707 41.7537L38.9707 40.5113ZM37.0968 40.5113C37.0968 40.071 37.3633 39.7092 37.8027 39.7092C38.2166 39.7092 38.5086 40.0469 38.5086 40.5113C38.5086 40.9516 38.2166 41.3134 37.8027 41.3134C37.3662 41.2863 37.0968 40.9485 37.0968 40.5113ZM30.9905 39.2147C30.3101 39.2147 29.8225 39.7333 29.8225 40.5083C29.8225 41.2863 30.3101 41.8019 31.016 41.8019C31.3562 41.8019 31.6964 41.6994 31.9657 41.4642L31.7219 41.0752C31.5263 41.232 31.2825 41.3345 31.0415 41.3345C30.724 41.3345 30.4093 41.1777 30.3356 40.7405L32.0621 40.7405C32.0621 40.6621 32.0621 40.6108 32.0621 40.5324C32.0847 39.7333 31.6453 39.2147 30.9905 39.2147ZM30.9905 39.682C31.308 39.682 31.5263 39.8901 31.5745 40.2761L30.3583 40.2761C30.4065 39.9414 30.6248 39.682 30.9905 39.682ZM43.6681 40.5113L43.6681 38.2859L43.1579 38.2859L43.1579 39.5795C42.9878 39.3473 42.744 39.2177 42.4265 39.2177C41.7688 39.2177 41.2585 39.7605 41.2585 40.5113C41.2585 41.2622 41.7688 41.8049 42.4265 41.8049C42.7666 41.8049 43.0104 41.6753 43.1579 41.4431L43.1579 41.7537L43.6681 41.7537L43.6681 40.5113ZM41.7943 40.5113C41.7943 40.071 42.0608 39.7092 42.5002 39.7092C42.9141 39.7092 43.2061 40.0469 43.2061 40.5113C43.2061 40.9516 42.9141 41.3134 42.5002 41.3134C42.0608 41.2863 41.7943 40.9485 41.7943 40.5113ZM24.7112 40.5113L24.7112 39.2689L24.2009 39.2689L24.2009 39.5795C24.0308 39.3473 23.787 39.2177 23.4695 39.2177C22.8118 39.2177 22.3015 39.7605 22.3015 40.5113C22.3015 41.2622 22.8118 41.8049 23.4695 41.8049C23.8097 41.8049 24.0535 41.6753 24.2009 41.4431L24.2009 41.7537L24.7112 41.7537L24.7112 40.5113ZM22.8146 40.5113C22.8146 40.071 23.0811 39.7092 23.5205 39.7092C23.9344 39.7092 24.2264 40.0469 24.2264 40.5113C24.2264 40.9516 23.9344 41.3134 23.5205 41.3134C23.0811 41.2863 22.8146 40.9485 22.8146 40.5113Z" fill="black"/>
<path d="M34.6907 20.3984L27.0251 20.3984L27.0251 35.0476L34.6907 35.0476L34.6907 20.3984Z" fill="black"/>
<path d="M27.5354 27.7228C27.5354 24.7465 28.8508 22.105 30.8692 20.3983C29.3837 19.1559 27.5099 18.405 25.4659 18.405C20.6239 18.405 16.7061 22.5724 16.7061 27.7228C16.7061 32.8732 20.6239 37.0406 25.4659 37.0406C27.5099 37.0406 29.3837 36.2897 30.8692 35.0474C28.8479 33.3647 27.5354 30.6991 27.5354 27.7228Z" fill="#464646"/>
<path d="M45.0321 27.7228C45.0321 32.8732 41.1142 37.0406 36.2722 37.0406C34.2283 37.0406 32.3544 36.2897 30.8689 35.0474C32.9129 33.3376 34.2027 30.6991 34.2027 27.7228C34.2027 24.7465 32.8873 22.105 30.8689 20.3983C32.3515 19.1559 34.2254 18.405 36.2694 18.405C41.1142 18.405 45.0321 22.5995 45.0321 27.7228Z" fill="#8B8B8B"/>
</g>
<defs>
<clipPath id="clip0_2_17767">
<rect width="28.3263" height="23.4" fill="white" transform="translate(16.7061 18.405)"/>
</clipPath>
</defs>
</svg>
