<svg width="446" height="437" viewBox="0 0 446 437" fill="none" xmlns="http://www.w3.org/2000/svg">
<path fill-rule="evenodd" clip-rule="evenodd" d="M284.083 1.51949C287.67 -0.551577 292.257 0.677482 294.328 4.26468C296.399 7.85187 295.17 12.4388 291.583 14.5099L11.8567 176.01C8.26953 178.081 3.6826 176.852 1.61153 173.265C-0.459537 169.677 0.769526 165.091 4.35672 163.019L284.083 1.51949ZM296.583 23.1701C300.17 21.0991 304.757 22.3281 306.828 25.9153C308.899 29.5025 307.67 34.0894 304.083 36.1605L24.3567 197.66C20.7695 199.732 16.1826 198.502 14.1115 194.915C12.0405 191.328 13.2695 186.741 16.8567 184.67L296.583 23.1701ZM319.328 47.5659C317.257 43.9788 312.67 42.7497 309.083 44.8208L29.3567 206.321C25.7695 208.392 24.5405 212.979 26.6115 216.566C28.6826 220.153 33.2695 221.382 36.8567 219.311L316.583 57.8111C320.17 55.7401 321.399 51.1531 319.328 47.5659ZM321.583 66.4714C325.17 64.4003 329.757 65.6294 331.828 69.2166C333.899 72.8038 332.67 77.3907 329.083 79.4618L49.3567 240.962C45.7695 243.033 41.1826 241.804 39.1115 238.217C37.0405 234.629 38.2695 230.042 41.8567 227.971L321.583 66.4714ZM344.328 90.8672C342.257 87.28 337.67 86.051 334.083 88.122L54.3567 249.622C50.7695 251.693 49.5405 256.28 51.6115 259.867C53.6826 263.454 58.2695 264.683 61.8567 262.612L341.583 101.112C345.17 99.0413 346.399 94.4544 344.328 90.8672ZM346.583 109.773C350.17 107.702 354.757 108.931 356.828 112.518C358.899 116.105 357.67 120.692 354.083 122.763L74.3567 284.263C70.7695 286.334 66.1826 285.105 64.1115 281.518C62.0405 277.931 63.2695 273.344 66.8567 271.273L346.583 109.773ZM369.328 134.168C367.257 130.581 362.67 129.352 359.083 131.423L79.3567 292.923C75.7695 294.994 74.5405 299.581 76.6115 303.168C78.6826 306.756 83.2695 307.985 86.8567 305.914L366.583 144.414C370.17 142.343 371.399 137.756 369.328 134.168ZM371.583 153.074C375.17 151.003 379.757 152.232 381.828 155.819C383.899 159.406 382.67 163.993 379.083 166.064L99.3567 327.564C95.7695 329.635 91.1826 328.406 89.1115 324.819C87.0405 321.232 88.2695 316.645 91.8567 314.574L371.583 153.074ZM394.328 177.47C392.257 173.883 387.67 172.653 384.083 174.725L104.357 336.225C100.77 338.296 99.5405 342.883 101.612 346.47C103.683 350.057 108.27 351.286 111.857 349.215L391.583 187.715C395.17 185.644 396.399 181.057 394.328 177.47ZM396.583 196.375C400.17 194.304 404.757 195.533 406.828 199.12C408.899 202.708 407.67 207.295 404.083 209.366L124.357 370.866C120.77 372.937 116.183 371.708 114.112 368.12C112.04 364.533 113.27 359.946 116.857 357.875L396.583 196.375ZM419.328 220.771C417.257 217.184 412.67 215.955 409.083 218.026L129.357 379.526C125.77 381.597 124.54 386.184 126.612 389.771C128.683 393.358 133.27 394.587 136.857 392.516L416.583 231.016C420.17 228.945 421.399 224.358 419.328 220.771ZM421.583 239.676C425.17 237.605 429.757 238.834 431.828 242.422C433.899 246.009 432.67 250.596 429.083 252.667L149.357 414.167C145.77 416.238 141.183 415.009 139.112 411.422C137.04 407.834 138.27 403.248 141.857 401.176L421.583 239.676ZM444.328 264.072C442.257 260.485 437.67 259.256 434.083 261.327L154.357 422.827C150.77 424.898 149.54 429.485 151.612 433.072C153.683 436.659 158.27 437.889 161.857 435.817L441.583 274.318C445.17 272.246 446.399 267.659 444.328 264.072Z" fill="#F4F0FF"/>
</svg>
