<svg width="61" height="61" viewBox="0 0 61 61" fill="none" xmlns="http://www.w3.org/2000/svg">
<path d="M35.4844 24.8955C32.9438 24.8955 30.6733 26.2188 30.6733 28.6636C30.6733 31.4674 34.7001 31.6611 34.7001 33.0696C34.7001 33.6627 34.0237 34.1936 32.8685 34.1936C31.229 34.1936 30.0036 33.4518 30.0036 33.4518L29.4793 35.9189C29.4793 35.9189 30.8909 36.5455 32.765 36.5455C35.5428 36.5455 37.7285 35.1573 37.7285 32.6706C37.7285 29.7079 33.685 29.52 33.685 28.2126C33.685 27.748 34.2402 27.239 35.3922 27.239C36.6919 27.239 37.7523 27.7785 37.7523 27.7785L38.2654 25.3957C38.2654 25.3957 37.1116 24.8955 35.4844 24.8955ZM12.2397 25.0753L12.1782 25.435C12.1782 25.435 13.2471 25.6316 14.2098 26.0237C15.4493 26.4733 15.5376 26.7351 15.7464 27.5481L18.0212 36.3601L21.0706 36.3601L25.7685 25.0753L22.7261 25.0753L19.7074 32.7479L18.4756 26.2443C18.3626 25.4999 17.7904 25.0753 17.09 25.0753L12.2397 25.0753ZM26.9919 25.0753L24.6052 36.3601L27.5064 36.3601L29.8847 25.0753L26.9919 25.0753ZM43.173 25.0753C42.4734 25.0753 42.1028 25.4517 41.8308 26.1094L37.5803 36.3601L40.6227 36.3601L41.2114 34.6516L44.9179 34.6516L45.2759 36.3601L47.9604 36.3601L45.6184 25.0753L43.173 25.0753ZM43.5687 28.1241L44.4705 32.3587L42.0545 32.3587L43.5687 28.1241Z" fill="#271100"/>
</svg>
