<svg width="109" height="60" viewBox="0 0 109 60" fill="none" xmlns="http://www.w3.org/2000/svg">
<rect x="0.550659" width="108" height="60" rx="30" fill="#07FACB"/>
<path d="M35.6257 22.6339C36.078 21.2587 38.0233 21.2587 38.4756 22.6339L39.2359 24.9458C39.6824 26.3034 40.7472 27.3682 42.1048 27.8147L44.4168 28.5751C45.792 29.0273 45.792 30.9727 44.4168 31.4249L42.1048 32.1853C40.7472 32.6318 39.6824 33.6966 39.2359 35.0541L38.4756 37.3661C38.0233 38.7413 36.078 38.7413 35.6257 37.3661L34.8654 35.0542C34.4189 33.6966 33.3541 32.6318 31.9965 32.1853L29.6845 31.4249C28.3094 30.9727 28.3094 29.0273 29.6845 28.5751L31.9965 27.8147C33.3541 27.3682 34.4189 26.3034 34.8654 24.9458L35.6257 22.6339Z" stroke="#0D031F" stroke-width="3"/>
<path d="M70.6257 22.6339C71.078 21.2587 73.0233 21.2587 73.4756 22.6339L74.2359 24.9458C74.6824 26.3034 75.7472 27.3682 77.1048 27.8147L79.4168 28.5751C80.792 29.0273 80.792 30.9727 79.4168 31.4249L77.1048 32.1853C75.7472 32.6318 74.6824 33.6966 74.2359 35.0541L73.4756 37.3661C73.0233 38.7413 71.078 38.7413 70.6257 37.3661L69.8654 35.0542C69.4189 33.6966 68.3541 32.6318 66.9965 32.1853L64.6845 31.4249C63.3094 30.9727 63.3094 29.0273 64.6845 28.5751L66.9965 27.8147C68.3541 27.3682 69.4189 26.3034 69.8654 24.9458L70.6257 22.6339Z" stroke="#0D031F" stroke-width="3"/>
</svg>
