<svg width="30" height="30" viewBox="0 0 30 30" fill="none" xmlns="http://www.w3.org/2000/svg">
<path fill-rule="evenodd" clip-rule="evenodd" d="M15 5C9.47715 5 5 9.47715 5 15C5 20.5228 9.47715 25 15 25C20.5228 25 25 20.5228 25 15C25 9.47715 20.5228 5 15 5ZM2.5 15C2.5 8.09644 8.09644 2.5 15 2.5C21.9036 2.5 27.5 8.09644 27.5 15C27.5 21.9036 21.9036 27.5 15 27.5C8.09644 27.5 2.5 21.9036 2.5 15Z" fill="#F9F7FF"/>
<path fill-rule="evenodd" clip-rule="evenodd" d="M26.25 16.25H3.75V13.75H26.25V16.25Z" fill="#F9F7FF"/>
<path fill-rule="evenodd" clip-rule="evenodd" d="M14.1156 25.3666C14.1159 25.3664 14.1161 25.3661 15 26.25C15.8839 27.1339 15.8842 27.1336 15.8845 27.1333L15.887 27.1308L15.8919 27.1259L15.907 27.1105C15.9194 27.0978 15.9365 27.0803 15.9579 27.058C16.0006 27.0134 16.0607 26.9499 16.1357 26.8683C16.2854 26.7051 16.495 26.4693 16.7442 26.1681C17.2419 25.5667 17.903 24.6989 18.5646 23.6239C19.8768 21.4915 21.25 18.4477 21.25 15C21.25 11.5523 19.8768 8.5085 18.5646 6.37613C17.903 5.30107 17.2419 4.43332 16.7442 3.83195C16.495 3.53073 16.2854 3.29486 16.1357 3.13171C16.0607 3.0501 16.0006 2.98656 15.9579 2.94201C15.9365 2.91974 15.9194 2.9022 15.907 2.88952L15.8919 2.87414L15.887 2.8692L15.8852 2.86743C15.8849 2.86712 15.8839 2.86612 15 3.75C14.1161 4.63388 14.1159 4.63363 14.1156 4.6334L14.1217 4.63955L14.1544 4.67334C14.1849 4.70509 14.2322 4.75508 14.294 4.82239C14.4177 4.95709 14.5988 5.16068 14.8183 5.42587C15.2581 5.9573 15.847 6.73018 16.4354 7.68637C17.6232 9.6165 18.75 12.1977 18.75 15C18.75 17.8023 17.6232 20.3835 16.4354 22.3136C15.847 23.2698 15.2581 24.0427 14.8183 24.5741C14.5988 24.8393 14.4177 25.0429 14.294 25.1776C14.2322 25.2449 14.1849 25.2949 14.1544 25.3267L14.1217 25.3604L14.1156 25.3666Z" fill="#F9F7FF"/>
<path fill-rule="evenodd" clip-rule="evenodd" d="M15.8844 25.3666C15.8841 25.3664 15.8839 25.3661 15 26.25C14.1161 27.1339 14.1158 27.1336 14.1155 27.1333L14.113 27.1308L14.1081 27.1259L14.093 27.1105C14.0806 27.0978 14.0635 27.0803 14.0421 27.058C13.9994 27.0134 13.9393 26.9499 13.8643 26.8683C13.7146 26.7051 13.505 26.4693 13.2558 26.1681C12.7581 25.5667 12.097 24.6989 11.4354 23.6239C10.1232 21.4915 8.75 18.4477 8.75 15C8.75 11.5523 10.1232 8.5085 11.4354 6.37613C12.097 5.30107 12.7581 4.43332 13.2558 3.83195C13.505 3.53073 13.7146 3.29486 13.8643 3.13171C13.9393 3.0501 13.9994 2.98656 14.0421 2.94201C14.0635 2.91974 14.0806 2.9022 14.093 2.88952L14.1081 2.87414L14.113 2.8692L14.1148 2.86743C14.1151 2.86712 14.1161 2.86612 15 3.75C15.8839 4.63388 15.8841 4.63363 15.8844 4.6334L15.8783 4.63955L15.8456 4.67334C15.8151 4.70509 15.7678 4.75508 15.706 4.82239C15.5823 4.95709 15.4012 5.16068 15.1817 5.42587C14.7419 5.9573 14.153 6.73018 13.5646 7.68637C12.3768 9.6165 11.25 12.1977 11.25 15C11.25 17.8023 12.3768 20.3835 13.5646 22.3136C14.153 23.2698 14.7419 24.0427 15.1817 24.5741C15.4012 24.8393 15.5823 25.0429 15.706 25.1776C15.7678 25.2449 15.8151 25.2949 15.8456 25.3267L15.8783 25.3604L15.8844 25.3666Z" fill="#F9F7FF"/>
</svg>
