<svg width="30" height="30" viewBox="0 0 30 30" fill="none" xmlns="http://www.w3.org/2000/svg">
<path fill-rule="evenodd" clip-rule="evenodd" d="M15 8.75C12.5534 8.75 10.5199 10.2462 9.79187 12.2592C9.63253 12.6997 9.24024 13.0142 8.77557 13.0738C6.59582 13.3537 5 15.1125 5 17.1429C5 19.3544 6.90058 21.25 9.375 21.25C10.0654 21.25 10.625 21.8096 10.625 22.5C10.625 23.1904 10.0654 23.75 9.375 23.75C5.63622 23.75 2.5 20.8487 2.5 17.1429C2.5 13.9996 4.76143 11.4309 7.72624 10.7274C8.99954 8.06366 11.797 6.25 15 6.25C18.9679 6.25 22.3394 9.05018 22.9138 12.793C25.4957 13.307 27.5 15.4971 27.5 18.2143C27.5 21.3283 24.8675 23.75 21.75 23.75C21.0596 23.75 20.5 23.1904 20.5 22.5C20.5 21.8096 21.0596 21.25 21.75 21.25C23.6031 21.25 25 19.8341 25 18.2143C25 16.5945 23.6031 15.1786 21.75 15.1786C21.0596 15.1786 20.5 14.6189 20.5 13.9286C20.5 11.1253 18.0957 8.75 15 8.75Z" fill="#F9F7FF"/>
<path fill-rule="evenodd" clip-rule="evenodd" d="M15 23.75C14.3096 23.75 13.75 23.1904 13.75 22.5V15C13.75 14.3096 14.3096 13.75 15 13.75C15.6904 13.75 16.25 14.3096 16.25 15V22.5C16.25 23.1904 15.6904 23.75 15 23.75Z" fill="#F9F7FF"/>
<path fill-rule="evenodd" clip-rule="evenodd" d="M11.6161 18.3839C11.128 17.8957 11.128 17.1043 11.6161 16.6161L14.1161 14.1161C14.6043 13.628 15.3957 13.628 15.8839 14.1161C16.372 14.6043 16.372 15.3957 15.8839 15.8839L13.3839 18.3839C12.8957 18.872 12.1043 18.872 11.6161 18.3839Z" fill="#F9F7FF"/>
<path fill-rule="evenodd" clip-rule="evenodd" d="M14.1161 14.1161C14.6043 13.628 15.3957 13.628 15.8839 14.1161L18.3839 16.6161C18.872 17.1043 18.872 17.8957 18.3839 18.3839C17.8957 18.872 17.1043 18.872 16.6161 18.3839L14.1161 15.8839C13.628 15.3957 13.628 14.6043 14.1161 14.1161Z" fill="#F9F7FF"/>
</svg>
