<svg width="70" height="70" viewBox="0 0 70 70" fill="none" xmlns="http://www.w3.org/2000/svg">
<rect width="70" height="70" rx="35" fill="#07FACB"/>
<path fill-rule="evenodd" clip-rule="evenodd" d="M35 25C35.4391 25 35.846 25.2304 36.0719 25.6069L39.5374 31.3827L45.2452 32.5243C45.6972 32.6147 46.0628 32.9466 46.1964 33.3878C46.33 33.829 46.2099 34.3079 45.8839 34.6339L41.357 39.1608L42.4758 44.7549C42.5694 45.223 42.3882 45.7036 42.0088 45.9934C41.6294 46.2832 41.118 46.3315 40.691 46.118L35 43.2725L29.309 46.118C28.882 46.3315 28.3707 46.2832 27.9913 45.9934C27.6119 45.7036 27.4307 45.223 27.5243 44.7549L28.6431 39.1608L24.1161 34.6339C23.7902 34.3079 23.6701 33.829 23.8037 33.3878C23.9373 32.9466 24.3028 32.6147 24.7549 32.5243L30.4627 31.3827L33.9282 25.6069C34.1541 25.2304 34.561 25 35 25ZM35 28.6796L32.3219 33.1431C32.1407 33.4451 31.8405 33.6567 31.4952 33.7257L27.5355 34.5177L30.8839 37.8661C31.1794 38.1616 31.3077 38.5853 31.2258 38.9951L30.477 42.739L34.441 40.757C34.7929 40.581 35.2071 40.581 35.559 40.757L39.5231 42.739L38.7743 38.9951C38.6923 38.5853 38.8206 38.1616 39.1161 37.8661L42.4646 34.5177L38.5049 33.7257C38.1595 33.6567 37.8594 33.4451 37.6782 33.1431L35 28.6796Z" fill="#0D031F"/>
</svg>
