<svg width="15" height="15" viewBox="0 0 15 15" fill="none" xmlns="http://www.w3.org/2000/svg">
<g clip-path="url(#clip0_2_17621)">
<path d="M14.1199 10.7746L12.1661 8.82085C11.4684 8.12308 10.2822 8.40222 10.0031 9.30928C9.79374 9.9373 9.09598 10.2862 8.46799 10.1466C7.07246 9.79772 5.18849 7.98353 4.83961 6.51822C4.63028 5.89021 5.04894 5.19244 5.67693 4.98314C6.58402 4.70403 6.86313 3.51783 6.16536 2.82007L4.21162 0.866327C3.65341 0.377891 2.81609 0.377891 2.32766 0.866327L1.0019 2.19208C-0.323851 3.58761 1.14146 7.28576 4.42095 10.5653C7.70045 13.8448 11.3986 15.3799 12.7941 13.9843L14.1199 12.6586C14.6083 12.1003 14.6083 11.263 14.1199 10.7746Z" fill="#661FE7"/>
</g>
<defs>
<clipPath id="clip0_2_17621">
<rect width="14" height="14" fill="white" transform="translate(0.5 0.5)"/>
</clipPath>
</defs>
</svg>
