<svg width="15" height="13" viewBox="0 0 15 13" fill="none" xmlns="http://www.w3.org/2000/svg">
<g clip-path="url(#clip0_2_17628)">
<path d="M8.65714 7.13708C8.31266 7.36673 7.91253 7.48813 7.49998 7.48813C7.08746 7.48813 6.68733 7.36673 6.34285 7.13708L0.669095 3.35445C0.637616 3.33347 0.606949 3.31159 0.576904 3.28909V9.48733C0.576904 10.198 1.1536 10.762 1.85153 10.762H13.1484C13.859 10.762 14.423 10.1853 14.423 9.48733V3.28906C14.3929 3.31162 14.3622 3.33355 14.3307 3.35456L8.65714 7.13708Z" fill="#661FE7"/>
<path d="M1.11912 2.67925L6.79288 6.4619C7.00766 6.60509 7.25381 6.67667 7.49995 6.67667C7.74613 6.67667 7.9923 6.60506 8.20708 6.4619L13.8808 2.67925C14.2204 2.45303 14.4231 2.07442 14.4231 1.6658C14.4231 0.963188 13.8514 0.391602 13.1489 0.391602H1.8511C1.14852 0.391629 0.576904 0.963215 0.576904 1.66648C0.576904 2.07442 0.779621 2.45303 1.11912 2.67925Z" fill="#661FE7"/>
</g>
<defs>
<clipPath id="clip0_2_17628">
<rect width="13.8462" height="12" fill="white" transform="translate(0.576904 0.5)"/>
</clipPath>
</defs>
</svg>
