<svg width="13" height="16" viewBox="0 0 13 16" fill="none" xmlns="http://www.w3.org/2000/svg">
<path d="M6.49992 0C3.30476 0 0.705322 2.59944 0.705322 5.79457C0.705322 9.75982 5.89092 15.581 6.1117 15.8269C6.31908 16.0579 6.68114 16.0575 6.88814 15.8269C7.10892 15.581 12.2945 9.75982 12.2945 5.79457C12.2945 2.59944 9.69505 0 6.49992 0ZM6.49992 8.70998C4.89236 8.70998 3.58454 7.40213 3.58454 5.79457C3.58454 4.187 4.89239 2.87919 6.49992 2.87919C8.10746 2.87919 9.41527 4.18704 9.41527 5.7946C9.41527 7.40216 8.10746 8.70998 6.49992 8.70998Z" fill="#661FE7"/>
</svg>
