<svg width="141" height="60" viewBox="0 0 141 60" fill="none" xmlns="http://www.w3.org/2000/svg">
<path d="M12.4072 4V17.9907L0 25.0208V39.0116L12.4776 46L24.9552 39.0116L12.4776 32.0093L24.9552 25.0208V11.0301L12.4072 4Z" fill="url(#paint0_linear_2_35774)"/>
<path d="M55.5449 27.8408C51.9819 27.8408 49.3906 30.2305 49.3906 33.5233C49.3906 36.816 51.9819 39.2057 55.5449 39.2057C59.108 39.2057 61.6992 36.816 61.6992 33.5233C61.6992 30.2305 59.108 27.8408 55.5449 27.8408ZM55.5449 37.0105C53.3198 37.0105 51.9819 35.7045 51.9819 33.5233C51.9819 31.342 53.3057 30.036 55.5449 30.036C57.7701 30.036 59.108 31.342 59.108 33.5233C59.108 35.7045 57.7701 37.0105 55.5449 37.0105Z" fill="#0D031F"/>
<path d="M73.7118 36.1213C72.7119 36.6632 71.5711 36.9411 70.3459 36.9411C68.3602 36.9411 66.8674 35.4822 66.8674 33.5371C66.8674 31.2864 68.2053 30.0499 70.6557 30.0499C71.6697 30.0499 72.5006 30.2444 73.3597 30.689L73.6554 30.8418L74.8102 28.8273L74.4863 28.6605C73.3738 28.077 72.2189 27.8408 70.5149 27.8408C66.9096 27.8408 64.1916 30.3139 64.1916 33.5788C64.1916 36.8855 66.6702 39.2057 70.2192 39.2057C72.0218 39.2057 73.3315 38.9139 74.6131 38.247L74.8807 38.1081L74.0357 35.9546L73.7118 36.1213Z" fill="#0D031F"/>
<path d="M85.5415 35.3436C84.6261 36.469 83.6262 36.9414 82.2179 36.9414C80.8237 36.9414 80.2604 36.205 80.2604 34.3711V28.0356H77.6268V34.3572C77.6268 37.5249 79.2182 39.1921 82.2179 39.1921C83.6262 39.1921 84.7951 38.7475 85.7387 37.8583L85.8232 38.9837H88.1891V28.0356H85.5556V35.3436H85.5415Z" fill="#0D031F"/>
<path d="M99.9626 28.3689C99.174 27.9938 98.3149 27.841 97.0474 27.841C93.6112 27.841 91.2029 30.1612 91.2029 33.4817C91.2029 37.0662 93.3858 39.2058 97.0193 39.2058C99.3007 39.2058 100.596 39.0669 102.329 38.6223L102.596 38.5528V24.1592H99.9626V28.3689V28.3689ZM99.9626 36.7189C99.174 36.8995 98.4839 36.969 97.4417 36.969C95.1744 36.969 93.8646 35.6908 93.8646 33.4539C93.8646 31.3282 95.118 30.0639 97.2164 30.0639C98.2727 30.0639 99.174 30.3279 99.9626 30.8836V36.7189Z" fill="#0D031F"/>
<path d="M43.7148 28.3689C42.9261 27.9938 42.067 27.841 40.7996 27.841C37.3633 27.841 34.9551 30.1612 34.9551 33.4817C34.9551 37.0662 37.138 39.2058 40.7714 39.2058C43.0529 39.2058 44.3485 39.0669 46.0807 38.6223L46.3483 38.5528V24.1592H43.7148V28.3689ZM43.7148 36.7189C42.9261 36.8995 42.236 36.969 41.1939 36.969C38.9265 36.969 37.6168 35.6908 37.6168 33.4539C37.6168 31.3282 38.8702 30.0639 40.9686 30.0639C42.0248 30.0639 42.9261 30.3279 43.7148 30.8836V36.7189V36.7189Z" fill="#0D031F"/>
<path d="M111.836 27.8408C108.273 27.8408 105.682 30.2305 105.682 33.5233C105.682 36.816 108.273 39.2057 111.836 39.2057C115.399 39.2057 117.99 36.816 117.99 33.5233C117.99 30.2305 115.399 27.8408 111.836 27.8408ZM111.836 37.0105C109.611 37.0105 108.273 35.7045 108.273 33.5233C108.273 31.342 109.597 30.036 111.836 30.036C114.075 30.036 115.399 31.342 115.399 33.5233C115.399 35.7045 114.061 37.0105 111.836 37.0105Z" fill="#0D031F"/>
<path d="M136.141 32.12C134.057 31.9116 133.691 31.5921 133.691 31.0085C133.691 30.3694 134.508 30.0082 135.93 30.0082C137.113 30.0082 137.986 30.1888 138.916 30.6056L139.254 30.7585L140.127 28.6189L139.789 28.4938C138.493 28.0075 137.522 27.8408 135.944 27.8408C132.409 27.8408 131.142 29.5636 131.142 31.1614C131.142 33.7039 133.466 34.2596 135.494 34.468C137.86 34.6903 138.029 35.0793 138.029 35.7045C138.029 36.552 137.057 36.9827 135.156 36.9827C134.071 36.9827 133.085 36.7604 132.086 36.302L131.719 36.1352L131.029 38.3721L131.325 38.4971C132.55 39.0251 133.649 39.2196 135.254 39.2196C139.873 39.2196 140.549 37.0383 140.549 35.7323C140.549 32.898 138.029 32.3145 136.141 32.12Z" fill="#0D031F"/>
<path d="M128.186 36.1075L127.848 36.3159C127.074 36.7883 126.454 36.9828 125.665 36.9828C124.595 36.9828 124.088 36.3854 124.088 35.1767V31.7033V30.1472V30.0222H128.102V28.0354H124.088V25.6318H122.75L119.807 28.8273V30.0222H121.426V30.2584V35.1906C121.426 37.7331 122.891 39.1919 125.454 39.1919C126.89 39.1919 127.947 38.9001 128.862 38.261L129.101 38.0943L128.186 36.1075Z" fill="#0D031F"/>
<defs>
<linearGradient id="paint0_linear_2_35774" x1="12.477" y1="46.0005" x2="12.477" y2="4" gradientUnits="userSpaceOnUse">
<stop stop-color="#6F00FF"/>
<stop offset="1" stop-color="#07FACB"/>
</linearGradient>
</defs>
</svg>
