<svg width="24" height="24" viewBox="0 0 24 24" fill="none" xmlns="http://www.w3.org/2000/svg">
<path d="M12.0025 12.9925C11.7425 12.9925 11.4925 12.8925 11.2925 12.7025C10.9025 12.3125 10.9025 11.6825 11.2925 11.2925L17.2925 5.2925C17.6825 4.9025 18.3125 4.9025 18.7025 5.2925C19.0925 5.6825 19.0925 6.3125 18.7025 6.7025L12.7025 12.7025C12.5125 12.8925 12.2625 12.9925 12.0025 12.9925Z" fill="#231F20"/>
<path d="M6.0025 18.9925C5.7425 18.9925 5.4925 18.8925 5.2925 18.7025C4.9025 18.3125 4.9025 17.6825 5.2925 17.2925L11.2925 11.2925C11.6825 10.9025 12.3125 10.9025 12.7025 11.2925C13.0925 11.6825 13.0925 12.3125 12.7025 12.7025L6.7025 18.7025C6.5125 18.8925 6.2625 18.9925 6.0025 18.9925Z" fill="#231F20"/>
<path d="M12.0025 12.9925C11.7425 12.9925 11.4925 12.8925 11.2925 12.7025L5.2925 6.7025C4.9025 6.3125 4.9025 5.6825 5.2925 5.2925C5.6825 4.9025 6.3125 4.9025 6.7025 5.2925L12.7025 11.2925C13.0925 11.6825 13.0925 12.3125 12.7025 12.7025C12.5125 12.8925 12.2625 12.9925 12.0025 12.9925Z" fill="#231F20"/>
<path d="M18.0025 18.9925C17.7425 18.9925 17.4925 18.8925 17.2925 18.7025L11.2925 12.7025C10.9025 12.3125 10.9025 11.6825 11.2925 11.2925C11.6825 10.9025 12.3125 10.9025 12.7025 11.2925L18.7025 17.2925C19.0925 17.6825 19.0925 18.3125 18.7025 18.7025C18.5125 18.8925 18.2625 18.9925 18.0025 18.9925Z" fill="#231F20"/>
</svg>
