<svg width="26" height="26" viewBox="0 0 26 26" fill="none" xmlns="http://www.w3.org/2000/svg">
<path d="M12.9994 8.66724C12.1423 8.66724 11.3045 8.92138 10.5919 9.39753C9.87927 9.87369 9.32385 10.5505 8.99587 11.3423C8.66789 12.1341 8.58208 13.0054 8.74928 13.846C8.91648 14.6865 9.32919 15.4587 9.93522 16.0647C10.5412 16.6707 11.3134 17.0834 12.154 17.2506C12.9945 17.4178 13.8658 17.332 14.6576 17.004C15.4495 16.6761 16.1262 16.1207 16.6024 15.408C17.0785 14.6954 17.3327 13.8576 17.3327 13.0006C17.3327 11.8513 16.8761 10.7491 16.0635 9.93644C15.2508 9.12378 14.1486 8.66724 12.9994 8.66724ZM12.9994 15.1672C12.5708 15.1672 12.1519 15.0402 11.7956 14.8021C11.4393 14.564 11.1616 14.2256 10.9976 13.8297C10.8336 13.4338 10.7907 12.9982 10.8743 12.5779C10.9579 12.1576 11.1643 11.7715 11.4673 11.4685C11.7703 11.1655 12.1564 10.9591 12.5767 10.8755C12.9969 10.7919 13.4326 10.8348 13.8285 10.9988C14.2244 11.1628 14.5628 11.4405 14.8009 11.7968C15.0389 12.1531 15.166 12.572 15.166 13.0006C15.166 13.5752 14.9377 14.1263 14.5314 14.5326C14.1251 14.939 13.574 15.1672 12.9994 15.1672Z" fill="black"/>
<path d="M23.0676 15.0583L22.5866 14.781C22.8032 13.6028 22.8032 12.395 22.5866 11.2168L23.0676 10.9395C23.4375 10.7261 23.7618 10.4419 24.0218 10.1032C24.2819 9.76453 24.4727 9.37792 24.5834 8.96547C24.694 8.55302 24.7224 8.12282 24.6668 7.69942C24.6112 7.27602 24.4727 6.86772 24.2593 6.49783C24.0459 6.12794 23.7617 5.80371 23.423 5.54364C23.0843 5.28357 22.6977 5.09276 22.2853 4.9821C21.8728 4.87144 21.4426 4.84311 21.0192 4.89871C20.5958 4.95432 20.1875 5.09277 19.8176 5.30617L19.3356 5.58458C18.425 4.80666 17.3787 4.2036 16.2491 3.80575V3.25C16.2491 2.38805 15.9067 1.5614 15.2972 0.951903C14.6877 0.34241 13.8611 0 12.9991 0C12.1372 0 11.3105 0.34241 10.701 0.951903C10.0915 1.5614 9.74913 2.38805 9.74913 3.25V3.80575C8.61964 4.20503 7.57363 4.80957 6.6638 5.58892L6.17955 5.30833C5.43252 4.87736 4.54489 4.76079 3.71191 4.98427C2.87894 5.20775 2.16886 5.75297 1.73788 6.5C1.3069 7.24703 1.19033 8.13466 1.41382 8.96764C1.6373 9.80061 2.18252 10.5107 2.92955 10.9417L3.41055 11.219C3.194 12.3972 3.194 13.605 3.41055 14.7832L2.92955 15.0605C2.18252 15.4915 1.6373 16.2016 1.41382 17.0345C1.19033 17.8675 1.3069 18.7551 1.73788 19.5022C2.16886 20.2492 2.87894 20.7944 3.71191 21.0179C4.54489 21.2414 5.43252 21.1248 6.17955 20.6938L6.66163 20.4154C7.57246 21.1935 8.61919 21.7965 9.74913 22.1943V22.75C9.74913 23.612 10.0915 24.4386 10.701 25.0481C11.3105 25.6576 12.1372 26 12.9991 26C13.8611 26 14.6877 25.6576 15.2972 25.0481C15.9067 24.4386 16.2491 23.612 16.2491 22.75V22.1943C17.3786 21.795 18.4246 21.1904 19.3345 20.4111L19.8187 20.6906C20.5657 21.1216 21.4534 21.2381 22.2864 21.0147C23.1193 20.7912 23.8294 20.2459 24.2604 19.4989C24.6914 18.7519 24.8079 17.8643 24.5844 17.0313C24.361 16.1983 23.8157 15.4882 23.0687 15.0573L23.0676 15.0583ZM20.3073 10.9677C20.6742 12.297 20.6742 13.7008 20.3073 15.0302C20.2432 15.2615 20.2579 15.5076 20.3488 15.7298C20.4398 15.952 20.602 16.1376 20.81 16.2576L21.9843 16.9358C22.2333 17.0794 22.415 17.3161 22.4894 17.5937C22.5639 17.8713 22.525 18.1672 22.3813 18.4161C22.2377 18.6651 22.001 18.8468 21.7234 18.9212C21.4458 18.9957 21.1499 18.9568 20.901 18.8132L19.7245 18.1328C19.5164 18.0123 19.274 17.9644 19.0357 17.9968C18.7974 18.0292 18.5766 18.1399 18.4082 18.3116C17.444 19.296 16.2292 19.9983 14.895 20.3428C14.6621 20.4027 14.4557 20.5384 14.3084 20.7284C14.1611 20.9185 14.0813 21.1521 14.0814 21.3926V22.75C14.0814 23.0373 13.9672 23.3129 13.7641 23.516C13.5609 23.7192 13.2854 23.8333 12.998 23.8333C12.7107 23.8333 12.4352 23.7192 12.232 23.516C12.0289 23.3129 11.9147 23.0373 11.9147 22.75V21.3937C11.9148 21.1532 11.835 20.9196 11.6877 20.7295C11.5404 20.5394 11.334 20.4038 11.1011 20.3439C9.76684 19.998 8.5524 19.2941 7.58896 18.3083C7.42053 18.1367 7.19976 18.0259 6.96145 17.9936C6.72314 17.9612 6.48083 18.009 6.27271 18.1296L5.09838 18.8088C4.97513 18.8811 4.8388 18.9283 4.69725 18.9476C4.5557 18.967 4.41171 18.9581 4.27359 18.9216C4.13546 18.8851 4.00593 18.8216 3.89244 18.7348C3.77894 18.648 3.68374 18.5397 3.6123 18.4159C3.54087 18.2922 3.49461 18.1556 3.47619 18.0139C3.45778 17.8722 3.46757 17.7283 3.505 17.5904C3.54244 17.4525 3.60677 17.3234 3.69431 17.2105C3.78184 17.0976 3.89085 17.0031 4.01505 16.9325L5.18938 16.2543C5.39733 16.1344 5.55953 15.9487 5.65051 15.7265C5.7415 15.5044 5.75611 15.2583 5.69205 15.0269C5.32518 13.6976 5.32518 12.2937 5.69205 10.9644C5.75495 10.7335 5.73965 10.4883 5.64851 10.2671C5.55738 10.0458 5.39556 9.86094 5.1883 9.74133L4.01396 9.06317C3.765 8.91951 3.58331 8.68283 3.50885 8.40521C3.43439 8.12759 3.47326 7.83175 3.61692 7.58279C3.76058 7.33383 3.99726 7.15213 4.27488 7.07768C4.5525 7.00322 4.84834 7.04209 5.0973 7.18575L6.2738 7.86608C6.48134 7.98689 6.72314 8.03531 6.9612 8.00374C7.19926 7.97217 7.42008 7.86239 7.58896 7.69167C8.55323 6.70729 9.76801 6.00494 11.1022 5.66042C11.3358 5.60036 11.5427 5.46407 11.6901 5.27313C11.8374 5.08219 11.9169 4.84753 11.9158 4.60633V3.25C11.9158 2.96268 12.0299 2.68713 12.2331 2.48397C12.4363 2.2808 12.7118 2.16667 12.9991 2.16667C13.2864 2.16667 13.562 2.2808 13.7652 2.48397C13.9683 2.68713 14.0825 2.96268 14.0825 3.25V4.60633C14.0823 4.84679 14.1622 5.08045 14.3095 5.2705C14.4568 5.46056 14.6632 5.59621 14.896 5.65608C16.2307 6.00183 17.4456 6.70571 18.4093 7.69167C18.5777 7.86334 18.7985 7.97408 19.0368 8.00645C19.2751 8.03881 19.5174 7.99095 19.7255 7.87042L20.8999 7.19117C21.0231 7.11891 21.1595 7.07175 21.301 7.05239C21.4426 7.03304 21.5865 7.04188 21.7247 7.07839C21.8628 7.11491 21.9923 7.17839 22.1058 7.26517C22.2193 7.35196 22.3145 7.46033 22.386 7.58406C22.4574 7.70779 22.5037 7.84443 22.5221 7.9861C22.5405 8.12778 22.5307 8.2717 22.4933 8.40958C22.4558 8.54746 22.3915 8.67657 22.304 8.78949C22.2164 8.9024 22.1074 8.99689 21.9832 9.0675L20.8089 9.74567C20.602 9.8656 20.4406 10.0506 20.3499 10.2718C20.2592 10.4931 20.2442 10.7381 20.3073 10.9688V10.9677Z" fill="black"/>
</svg>
