<svg width="26" height="26" viewBox="0 0 26 26" fill="none" xmlns="http://www.w3.org/2000/svg">
<g clip-path="url(#clip0_2_10519)">
<path d="M25.4998 24.4585C25.4998 24.7348 25.3901 24.9997 25.1948 25.1951C24.9994 25.3904 24.7344 25.5002 24.4582 25.5002H1.54151C1.26525 25.5002 1.0003 25.3904 0.804945 25.1951C0.609594 24.9997 0.499848 24.7348 0.499848 24.4585C0.499848 24.1822 0.609594 23.9173 0.804945 23.7219C1.0003 23.5266 1.26525 23.4168 1.54151 23.4168H24.4582C24.7344 23.4168 24.9994 23.5266 25.1948 23.7219C25.3901 23.9173 25.4998 24.1822 25.4998 24.4585ZM0.802973 9.40846C0.578517 8.99214 0.47453 8.52149 0.502681 8.04935C0.530833 7.57721 0.69001 7.12225 0.962348 6.73554C1.40741 6.08254 2.00344 5.54654 2.69985 5.17304L10.5134 1.10637C11.2814 0.707026 12.1342 0.498535 12.9998 0.498535C13.8655 0.498535 14.7183 0.707026 15.4863 1.10637L23.2988 5.17617C23.9952 5.54967 24.5912 6.08566 25.0363 6.73867C25.3086 7.12538 25.4678 7.58033 25.496 8.05247C25.5241 8.52461 25.4201 8.99526 25.1957 9.41159C24.954 9.8687 24.5916 10.2508 24.1479 10.5162C23.7041 10.7816 23.1961 10.9201 22.679 10.9168H22.3748V19.2501H23.4165C23.6928 19.2501 23.9577 19.3599 24.1531 19.5552C24.3484 19.7506 24.4582 20.0155 24.4582 20.2918C24.4582 20.5681 24.3484 20.833 24.1531 21.0284C23.9577 21.2237 23.6928 21.3335 23.4165 21.3335H2.58318C2.30691 21.3335 2.04196 21.2237 1.84661 21.0284C1.65126 20.833 1.54151 20.5681 1.54151 20.2918C1.54151 20.0155 1.65126 19.7506 1.84661 19.5552C2.04196 19.3599 2.30691 19.2501 2.58318 19.2501H3.62485V10.9168H3.32068C2.80314 10.92 2.29465 10.7811 1.85067 10.5151C1.40669 10.2491 1.04428 9.86632 0.802973 9.40846ZM5.70818 19.2501H8.83318V10.9168H5.70818V19.2501ZM10.9165 10.9168V19.2501H15.0832V10.9168H10.9165ZM20.2915 10.9168H17.1665V19.2501H20.2915V10.9168ZM2.64881 8.44284C2.71416 8.56334 2.81142 8.66352 2.92993 8.73242C3.04844 8.80132 3.18363 8.83628 3.32068 8.83346H22.679C22.8161 8.83628 22.9513 8.80132 23.0698 8.73242C23.1883 8.66352 23.2855 8.56334 23.3509 8.44284C23.3985 8.36322 23.4215 8.27131 23.4171 8.17864C23.4126 8.08598 23.3809 7.9967 23.3259 7.922C23.0735 7.54691 22.7344 7.23819 22.3374 7.022L14.5248 2.95221C14.054 2.70785 13.5313 2.5803 13.0009 2.5803C12.4704 2.5803 11.9478 2.70785 11.4769 2.95221L3.66443 7.022C3.26754 7.23889 2.92852 7.54789 2.67589 7.92305C2.62077 7.99743 2.58881 8.08641 2.58399 8.17886C2.57917 8.27131 2.60172 8.36313 2.64881 8.44284Z" fill="black"/>
</g>
<defs>
<clipPath id="clip0_2_10519">
<rect width="25" height="25" fill="white" transform="translate(0.5 0.5)"/>
</clipPath>
</defs>
</svg>
