<svg width="26" height="26" viewBox="0 0 26 26" fill="none" xmlns="http://www.w3.org/2000/svg">
<g clip-path="url(#clip0_2_10546)">
<path d="M5.95898 18.4167C6.85645 18.4167 7.58398 17.6892 7.58398 16.7917C7.58398 15.8943 6.85645 15.1667 5.95898 15.1667C5.06152 15.1667 4.33398 15.8943 4.33398 16.7917C4.33398 17.6892 5.06152 18.4167 5.95898 18.4167Z" fill="black"/>
<path d="M20.5833 3.25H5.41667C3.98061 3.25172 2.60385 3.82296 1.5884 4.8384C0.572955 5.85385 0.00172018 7.23061 0 8.66667L0 17.3333C0.00172018 18.7694 0.572955 20.1461 1.5884 21.1616C2.60385 22.177 3.98061 22.7483 5.41667 22.75H20.5833C22.0194 22.7483 23.3961 22.177 24.4116 21.1616C25.427 20.1461 25.9983 18.7694 26 17.3333V8.66667C25.9983 7.23061 25.427 5.85385 24.4116 4.8384C23.3961 3.82296 22.0194 3.25172 20.5833 3.25ZM5.41667 5.41667H20.5833C21.4453 5.41667 22.2719 5.75908 22.8814 6.36857C23.4909 6.97806 23.8333 7.80471 23.8333 8.66667H2.16667C2.16667 7.80471 2.50908 6.97806 3.11857 6.36857C3.72806 5.75908 4.55471 5.41667 5.41667 5.41667ZM20.5833 20.5833H5.41667C4.55471 20.5833 3.72806 20.2409 3.11857 19.6314C2.50908 19.0219 2.16667 18.1953 2.16667 17.3333V10.8333H23.8333V17.3333C23.8333 18.1953 23.4909 19.0219 22.8814 19.6314C22.2719 20.2409 21.4453 20.5833 20.5833 20.5833Z" fill="black"/>
</g>
<defs>
<clipPath id="clip0_2_10546">
<rect width="26" height="26" fill="white"/>
</clipPath>
</defs>
</svg>
