<svg width="26" height="26" viewBox="0 0 26 26" fill="none" xmlns="http://www.w3.org/2000/svg">
<g clip-path="url(#clip0_2_10573)">
<path d="M20.2917 1.5415H5.70833C4.32751 1.54316 3.00371 2.09242 2.02731 3.06882C1.05092 4.04521 0.501654 5.36901 0.5 6.74984L0.5 15.0832C0.501654 16.464 1.05092 17.7878 2.02731 18.7642C3.00371 19.7406 4.32751 20.2898 5.70833 20.2915H11.9583V22.3748H7.79167C7.5154 22.3748 7.25045 22.4846 7.0551 22.6799C6.85975 22.8753 6.75 23.1402 6.75 23.4165C6.75 23.6928 6.85975 23.9577 7.0551 24.1531C7.25045 24.3484 7.5154 24.4582 7.79167 24.4582H18.2083C18.4846 24.4582 18.7496 24.3484 18.9449 24.1531C19.1403 23.9577 19.25 23.6928 19.25 23.4165C19.25 23.1402 19.1403 22.8753 18.9449 22.6799C18.7496 22.4846 18.4846 22.3748 18.2083 22.3748H14.0417V20.2915H20.2917C21.6725 20.2898 22.9963 19.7406 23.9727 18.7642C24.9491 17.7878 25.4983 16.464 25.5 15.0832V6.74984C25.4983 5.36901 24.9491 4.04521 23.9727 3.06882C22.9963 2.09242 21.6725 1.54316 20.2917 1.5415ZM5.70833 3.62484H20.2917C21.1205 3.62484 21.9153 3.95408 22.5014 4.54013C23.0874 5.12618 23.4167 5.92104 23.4167 6.74984V14.0415H2.58333V6.74984C2.58333 5.92104 2.91257 5.12618 3.49862 4.54013C4.08468 3.95408 4.87953 3.62484 5.70833 3.62484ZM20.2917 18.2082H5.70833C5.06431 18.2055 4.43684 18.0039 3.91177 17.631C3.3867 17.2581 2.98967 16.732 2.775 16.1248H23.225C23.0103 16.732 22.6133 17.2581 22.0882 17.631C21.5632 18.0039 20.9357 18.2055 20.2917 18.2082Z" fill="black"/>
</g>
<defs>
<clipPath id="clip0_2_10573">
<rect width="25" height="25" fill="white" transform="translate(0.5 0.5)"/>
</clipPath>
</defs>
</svg>
